<?xml version="1.0" encoding="utf-8"?>
<!-- Generator: Adobe Illustrator 19.0.0, SVG Export Plug-In . SVG Version: 6.00 Build 0)  -->
<svg version="1.1" id="Layer_1" xmlns="http://www.w3.org/2000/svg" xmlns:xlink="http://www.w3.org/1999/xlink" x="0px" y="0px"
	 width="1400px" height="980px" viewBox="0 0 1400 980" enable-background="new 0 0 1400 980" xml:space="preserve">
<g>
	<rect x="2.5" y="0.5" fill="#E89072" width="1398" height="980.7"/>
	<path fill="#E59B88" d="M1400,359.9v388.6H2.5V341.2c123.8-59.8,380.5-158.8,594.6-78.7c294.3,110,416.4-52,526.6-28
		C1209.5,253.2,1311,350.7,1400,359.9z"/>
	<circle fill="#BD2E2B" cx="420.4" cy="517.8" r="168"/>
	<rect x="0.5" y="718.5" fill="#FFC7BF" width="1400" height="261.3"/>
	<ellipse fill="#E59B88" cx="760.1" cy="900.3" rx="451.5" ry="26.2"/>
	<path fill="#FFFFFF" d="M79.1,173.2c0-0.1,0-0.3,0-0.4c0-12,9.7-21.7,21.7-21.7c4.8,0,9.2,1.6,12.8,4.2c6.7-15.2,22-25.9,39.7-25.9
		c4.1,0,8,0.6,11.8,1.6c0.9-12,11-21.4,23.2-21.4c4.4,0,8.6,1.2,12.1,3.4c5.2-17.2,21.2-29.8,40.2-29.8c18.5,0,34.1,11.9,39.8,28.5
		c12.2,3.9,22,13,26.8,24.7c4.1-2.3,8.9-3.5,13.9-3.5c16,0,29,13,29,29c0,4-0.8,7.9-2.3,11.3H79.1z"/>
	<path fill="#FFFFFF" d="M1282,173.2c0-0.1,0-0.3,0-0.4c0-12-9.7-21.7-21.7-21.7c-4.8,0-9.2,1.6-12.8,4.2
		c-6.7-15.2-22-25.9-39.7-25.9c-4.1,0-8,0.6-11.8,1.6c-0.9-12-11-21.4-23.2-21.4c-4.4,0-8.6,1.2-12.1,3.4
		c-5.2-17.2-21.2-29.8-40.2-29.8c-18.5,0-34.1,11.9-39.8,28.5c-12.2,3.9-22,13-26.8,24.7c-4.1-2.3-8.9-3.5-13.9-3.5
		c-16,0-29,13-29,29c0,4,0.8,7.9,2.3,11.3H1282z"/>
	<path fill="#FFFFFF" d="M775.7,231.2c0-0.1,0-0.2,0-0.3c0-7-5.7-12.7-12.7-12.7c-2.8,0-5.4,0.9-7.5,2.5
		c-3.9-8.9-12.9-15.2-23.2-15.2c-2.4,0-4.7,0.3-6.9,1c-0.6-7-6.4-12.5-13.6-12.5c-2.6,0-5,0.7-7.1,2c-3.1-10.1-12.4-17.4-23.5-17.4
		c-10.8,0-20,7-23.3,16.7c-7.1,2.3-12.9,7.6-15.7,14.5c-2.4-1.3-5.2-2.1-8.1-2.1c-9.4,0-17,7.6-17,17c0,2.4,0.5,4.6,1.4,6.6H775.7z"
		/>
	<g>
		<g>
			<polygon fill="#B2222C" points="707.7,645.7 613.8,645.7 641.1,599.1 625.7,599.1 646.4,563.7 634.3,563.7 660.5,518.9 
				660.8,518.5 687.2,563.7 675.2,563.7 695.9,599.1 680.5,599.1 			"/>
			<polygon fill="#821723" points="660.5,518.9 660.5,645.7 613.8,645.7 641.1,599.1 625.7,599.1 646.4,563.7 634.3,563.7 			"/>
		</g>
		<g>
			<polygon fill="#B2222C" points="716.6,645.7 661.3,645.7 677.4,618.3 668.3,618.3 680.5,597.4 673.4,597.4 688.8,571 689,570.8 
				704.6,597.4 697.4,597.4 709.6,618.3 700.6,618.3 			"/>
			<polygon fill="#821723" points="688.8,571 688.8,645.7 661.3,645.7 677.4,618.3 668.3,618.3 680.5,597.4 673.4,597.4 			"/>
		</g>
	</g>
	<g>
		<g>
			<g>
				<path fill="#AA5C46" d="M533.8,719.5H0.5L211.2,434l10.2-13.8c10.6-14.4,29.7-21.3,48.3-20.6c16.9,0.6,33.4,7.5,43.1,20.6
					l31.4,42.5L533.8,719.5z"/>
				<path fill="#934D3B" d="M269.7,399.5v320H0.5L211.2,434l10.2-13.8C232.1,405.7,251.1,398.8,269.7,399.5z"/>
				<path fill="#EFB9AF" d="M344.2,462.6c-0.5,3.5-1.4,6.6-3,8.8c-8.1,11.3-17.9-22.1-25.9-10.8c-8.1,11.3-12.1,5-19-3.6
					c-6.9-8.6,4,16.2-13.8,22.1c-5.1,1.7-9.2,0.7-12.7-1.2c-0.2-0.1-0.4-0.2-0.6-0.3c-8.3-4.9-13.6-14.8-23.6-5.7
					c-14.4,13.1-21.3-7.2-20.2-31.1c0.4-9-6-9.6-14.1-6.8l10.2-13.8c10.5-14.3,29.3-21.1,47.7-20.6c0.2,0,0.4,0,0.6,0
					c16.9,0.6,33.4,7.5,43.1,20.6L344.2,462.6z"/>
				<path fill="#DD9585" d="M269.2,399.5v78c-8.3-4.9-13.6-14.8-23.6-5.7c-14.4,13.1-21.3-7.2-20.2-31.1c0.4-9-6-9.6-14.1-6.8
					l10.2-13.8C232,405.9,250.7,399,269.2,399.5z"/>
			</g>
			<g>
				<path fill="#AA5C46" d="M719,719.5H310.9L472.2,501l7.8-10.6c8.1-11,22.7-16.3,36.9-15.8c12.9,0.5,25.6,5.7,33,15.8l24,32.5
					L719,719.5z"/>
				<path fill="#934D3B" d="M516.9,474.6v244.9H310.9L472.2,501l7.8-10.6C488.1,479.3,502.7,474.1,516.9,474.6z"/>
				<path fill="#EFB9AF" d="M573.9,522.9c-0.4,2.7-1.1,5.1-2.3,6.7c-6.2,8.6-13.7-16.9-19.9-8.3c-6.2,8.6-9.3,3.8-14.6-2.8
					c-5.3-6.6,3.1,12.4-10.6,16.9c-3.9,1.3-7,0.5-9.7-0.9c-0.2-0.1-0.3-0.2-0.4-0.3c-6.4-3.7-10.4-11.3-18.1-4.3
					c-11,10-16.3-5.5-15.4-23.8c0.3-6.9-4.6-7.3-10.8-5.2l7.8-10.6c8.1-10.9,22.4-16.2,36.5-15.8c0.1,0,0.3,0,0.4,0
					c12.9,0.5,25.6,5.7,33,15.8L573.9,522.9z"/>
				<path fill="#DD9585" d="M516.5,474.6v59.7c-6.4-3.7-10.4-11.3-18.1-4.3c-11,10-16.3-5.5-15.4-23.8c0.3-6.9-4.6-7.3-10.8-5.2
					l7.8-10.6C488.1,479.5,502.4,474.2,516.5,474.6z"/>
			</g>
		</g>
		<g>
			<g>
				<path fill="#AA5C46" d="M1200,719.5H628.5L854.3,268l11-21.9c11.4-22.8,31.8-33.7,51.7-32.5c18.1,1,35.8,11.8,46.2,32.5
					l33.6,67.2L1200,719.5z"/>
				<path fill="#934D3B" d="M917,213.6v505.9H628.5L854.3,268l11-21.9C876.7,223.3,897.1,212.5,917,213.6z"/>
				<path fill="#EFB9AF" d="M996.8,313.3c-0.5,5.6-1.5,10.4-3.2,13.9c-8.7,17.8-19.2-34.9-27.8-17.1c-8.7,17.8-13,7.9-20.4-5.7
					c-7.4-13.6,4.3,25.7-14.8,34.9c-5.5,2.7-9.9,1.1-13.6-1.9c-0.2-0.2-0.4-0.3-0.6-0.5c-8.9-7.7-14.6-23.4-25.3-9
					c-15.5,20.7-22.9-11.4-21.6-49.2c0.5-14.2-6.4-15.1-15.1-10.7l11-21.9c11.3-22.6,31.4-33.4,51.1-32.6c0.2,0,0.4,0,0.6,0
					c18.1,1,35.8,11.8,46.2,32.5L996.8,313.3z"/>
				<path fill="#DD9585" d="M916.4,213.6v123.4c-8.9-7.7-14.6-23.4-25.3-9c-15.5,20.7-22.9-11.4-21.6-49.2
					c0.5-14.2-6.4-15.1-15.1-10.7l11-21.9C876.6,223.5,896.6,212.7,916.4,213.6z"/>
			</g>
			<g>
				<path fill="#AA5C46" d="M1398.5,719.5H961.1L1133.9,374l8.4-16.8c8.7-17.5,24.3-25.8,39.6-24.9c13.9,0.8,27.4,9.1,35.3,24.9
					l25.7,51.4L1398.5,719.5z"/>
				<path fill="#934D3B" d="M1181.9,332.3v387.2H961.1L1133.9,374l8.4-16.8C1151.1,339.7,1166.7,331.4,1181.9,332.3z"/>
				<path fill="#EFB9AF" d="M1243,408.6c-0.4,4.3-1.1,8-2.4,10.7c-6.6,13.6-14.7-26.7-21.3-13.1c-6.6,13.6-9.9,6-15.6-4.4
					c-5.7-10.4,3.3,19.6-11.3,26.7c-4.2,2-7.5,0.9-10.4-1.5c-0.2-0.1-0.3-0.3-0.5-0.4c-6.8-5.9-11.2-17.9-19.4-6.9
					c-11.8,15.8-17.5-8.7-16.5-37.7c0.4-10.9-4.9-11.6-11.6-8.2l8.4-16.8c8.6-17.3,24-25.6,39.1-24.9c0.2,0,0.3,0,0.5,0
					c13.9,0.8,27.4,9.1,35.3,24.9L1243,408.6z"/>
				<path fill="#DD9585" d="M1181.5,332.3v94.4c-6.8-5.9-11.2-17.9-19.4-6.9c-11.8,15.8-17.5-8.7-16.5-37.7
					c0.4-10.9-4.9-11.6-11.6-8.2l8.4-16.8C1151,339.9,1166.3,331.6,1181.5,332.3z"/>
			</g>
		</g>
	</g>
	<polygon fill="#660F01" points="1254.1,767.7 1144.3,767.7 1176.2,713.2 1158.1,713.2 1182.4,671.8 1168.2,671.8 1198.9,619.4 
		1199.2,618.9 1230.2,671.8 1216.1,671.8 1240.3,713.2 1222.3,713.2 	"/>
	<polygon fill="#821723" points="1198.9,619.4 1198.9,767.7 1144.3,767.7 1176.2,713.2 1158.1,713.2 1182.4,671.8 1168.2,671.8 	"/>
	<polygon fill="#660F01" points="1371.2,767.7 1210.9,767.7 1257.4,688.2 1231.1,688.2 1266.5,627.8 1245.8,627.8 1290.6,551.3 
		1291.1,550.5 1336.3,627.8 1315.6,627.8 1351,688.2 1324.7,688.2 	"/>
	<polygon fill="#821723" points="1290.6,551.3 1290.6,767.7 1210.9,767.7 1257.4,688.2 1231.1,688.2 1266.5,627.8 1245.8,627.8 	"/>
	<g>
		<g>
			<polygon fill="#B2222C" points="1057.1,735.7 1150.8,735.7 1123.6,689.2 1139,689.2 1118.3,653.9 1130.4,653.9 1104.2,609.2 
				1104,608.8 1077.5,653.9 1089.6,653.9 1068.9,689.2 1084.3,689.2 			"/>
			<polygon fill="#821723" points="1104.2,609.2 1104.2,735.7 1150.8,735.7 1123.6,689.2 1139,689.2 1118.3,653.9 1130.4,653.9 			
				"/>
		</g>
		<g>
			<polygon fill="#B2222C" points="957.3,735.7 1094,735.7 1054.3,667.9 1076.8,667.9 1046.6,616.4 1064.2,616.4 1026,551.1 
				1025.6,550.5 987.1,616.4 1004.7,616.4 974.5,667.9 997,667.9 			"/>
			<polygon fill="#821723" points="1026,551.1 1026,735.7 1094,735.7 1054.3,667.9 1076.8,667.9 1046.6,616.4 1064.2,616.4 			"/>
		</g>
	</g>
	<g>
		<g>
			<polygon fill="#B2222C" points="185.8,749.7 103.3,749.7 127.3,708.7 113.7,708.7 131.9,677.6 121.3,677.6 144.3,638.3 
				144.6,637.9 167.9,677.6 157.2,677.6 175.4,708.7 161.9,708.7 			"/>
			<polygon fill="#821723" points="144.3,638.3 144.3,749.7 103.3,749.7 127.3,708.7 113.7,708.7 131.9,677.6 121.3,677.6 			"/>
		</g>
		<g>
			<polygon fill="#B2222C" points="273.8,749.7 153.4,749.7 188.3,689.9 168.5,689.9 195.1,644.6 179.6,644.6 213.3,587.1 
				213.6,586.5 247.6,644.6 232.1,644.6 258.6,689.9 238.9,689.9 			"/>
			<polygon fill="#821723" points="213.3,587.1 213.3,749.7 153.4,749.7 188.3,689.9 168.5,689.9 195.1,644.6 179.6,644.6 			"/>
		</g>
	</g>
</g>
<g>
	<polygon fill="#292435" points="551.2,312.9 528.7,345.6 522.4,323.9 532.5,297.9 	"/>
	<path fill="#FFDD00" d="M623.4,876.5c0,0-7.2,27-17.2,27c-10.1,0-19.1-0.8-22.2,9h42.3c0,0,7.8,0.7,14.1-9.2
		c6.3-9.9,10.7-20.8,10.7-20.8s-3.1-13.4-10.3-19.4C633.6,857,623.4,876.5,623.4,876.5z"/>
	
		<rect x="391.5" y="565.1" transform="matrix(-0.9918 0.1274 -0.1274 -0.9918 880.6998 1417.9207)" fill="#161616" width="7" height="344.1"/>
	<path fill="#0D3E59" d="M422.9,881.9l-18.3,2.4c-1,0.1-1.9-0.6-2-1.5l-2-15.4c-0.1-1,0.6-1.9,1.5-2l18.3-2.4c1-0.1,1.9,0.6,2,1.5
		l2,15.4C424.6,880.9,423.9,881.8,422.9,881.9z"/>
	<path fill="#FFDD00" d="M372.6,866.2c0,0,4.6-9,24.6,3.7c20,12.7,24.6,15.8,29.1,14.6c4.5-1.3,14-4.7,14-4.7l5.8,13.4l0.4,7.8
		c0,0-3.4,14.5-10.9,21.7C428.1,929.8,372.6,866.2,372.6,866.2z"/>
	
		<rect x="712.4" y="577.7" transform="matrix(-0.8715 0.4905 -0.4905 -0.8715 1707.5917 1052.0078)" fill="#161616" width="7" height="344.1"/>
	<path fill="#0D3E59" d="M637.7,601.8l-7.6,4.3c-1.8,1-4.1,0.4-5.1-1.4L594,549.8c-1-1.8-0.4-4.1,1.4-5.1l7.6-4.3
		c1.8-1,4.1-0.4,5.1,1.4l30.9,54.9C640.1,598.5,639.5,600.8,637.7,601.8z"/>
	<path fill="#0D3E59" d="M796.2,873.5l-16.1,9.1c-0.9,0.5-2,0.2-2.4-0.7l-7.6-13.6c-0.5-0.9-0.2-2,0.7-2.4l16.1-9.1
		c0.9-0.5,2-0.2,2.4,0.7l7.6,13.6C797.3,871.9,797,873,796.2,873.5z"/>
	<path fill="#A52D2D" d="M560.6,630.6c-1.7,0.3-3.3,0.6-4.9,0.8c-34.3,5.6-56.8,1.9-70.3-2.9c-2.7-9.3-4.3-14.9-4.3-14.9l18.6-13.2
		c0,0,45.2-5.4,54.9,8.7C556.9,612.5,558.9,620.3,560.6,630.6z"/>
	<path fill="#BC3737" d="M631.2,846.5l-6.5,19.5l-15.9-4.7c-17.3,6.1-49.9-45.9-74.8-96.9c-19-38.8-39.8-106.1-48.6-135.9
		c13.5,4.7,35.9,8.5,70.3,2.9c1.6-0.3,3.2-0.5,4.9-0.8c5.4,32.7,8.3,89.8,13.5,105.7c6.9,21,50.6,74.1,57.1,87.8
		C637.7,837.9,631.2,846.5,631.2,846.5z"/>
	<path fill="#D74844" d="M578,621.9c-3.2,13.1-8.9,30.4-18.4,45c-15.9,24.6-71.9,181.4-80.2,199.1c-8.3,17.7-18.4,11.2-18.4,11.2
		l-22.1,1.8l-8.3-11.9c-6.9-10.5,8.7-49.1,8.7-49.1c19.5-63,56.4-152.8,71.6-189.1c11.9,1,26.7,0.7,44.8-2.3
		C562.6,625.4,570.1,623.9,578,621.9z"/>
	<path fill="#A52D2D" d="M608.8,861.4c0,0,7.6,14.1,12.3,17.7s20.6-7.6,22.8-15.9l-11.5-18.6C632.3,844.5,622.5,854.1,608.8,861.4z"
		/>
	<path fill="#FFFFFF" d="M552.9,627c-52.8,108.4-99,249.5-99,249.5l-2.6,7.2l-3.9-9.6c22.9-86.9,76.1-204.9,95.1-245.8
		C545.9,628,549.4,627.5,552.9,627z"/>
	<path fill="#BC3737" d="M448.6,869.9c-0.6,7.6-5.4,15.1-9.7,20.6c-2.8-1.9-6.7-4-12.6-6c0,0,1.8-13,4.3-17.3
		C432,864.7,440.8,866.8,448.6,869.9z"/>
	<path fill="#BC3737" d="M451.6,901c0,0-2.5,1-5.1,0c-1-0.4-0.9-2-2-4.3c11.1-13.9,10.6-23.8,10.6-23.8c3.1,1.6,5.4,3.2,5.9,4.4
		C462.8,881.6,455.5,895.8,451.6,901z"/>
	<path fill="#DDDDDD" d="M557.6,617.6c-1.6,3.1-3.1,6.3-4.7,9.4c-3.6,0.6-7,1-10.3,1.4c4.3-9.3,6.9-14.6,6.9-14.6L557.6,617.6z"/>
	<path fill="#BC3737" d="M581.3,603.3c-0.2,2.8-1.1,9.7-3.3,18.6c-8,2-15.4,3.5-22.4,4.6c-0.9,0.2-1.8,0.3-2.7,0.4
		c1.6-3.2,3.1-6.3,4.7-9.4l-8.1-3.8c0,0-2.5,5.3-6.9,14.6c-12.3,1.3-22.8,1.3-31.7,0.5c4.3-10.2,6.9-16.2,6.9-16.2
		s19.5-13,21.7-13.4C541.6,599,581.7,596.4,581.3,603.3z"/>
	<path fill="#FFFFFF" d="M444.5,896.7c-0.8-1.8-2.4-3.9-5.7-6.2c4.4-5.4,9.1-12.9,9.7-20.6c2.3,0.9,4.6,1.9,6.5,2.9
		C455.1,872.9,455.6,882.8,444.5,896.7z"/>
	<path fill="#E29986" d="M450.9,477.9c0,0,6.5,47.7-15.5,47.7s-40.8,0-40.8,0s-5.8-12.6-12.6-12.6c-6.9,0-24.2-3.3-24.2,9
		c0,12.3-1.1,30.7,9.4,30.7s70.8,0,70.8,0s27.7,2.9,27.7-11.6c0-14.5,19.6-49.5,19.6-49.5l-11.5-25.4L450.9,477.9z"/>
	<path fill="#C17C6F" d="M485.1,491.6c0,0-0.1,0.2-0.3,0.6c-3,1.4-6.6,2.3-10.8,2.3c-7.6,0-15.2-0.6-22.2-1.6c0-8.3-0.9-15-0.9-15
		l22.8-11.6L485.1,491.6z"/>
	<path fill="#22628E" d="M628.3,469.9c-2,4-4,7.3-5.8,9.9c-10.4,15-17.7,11.4-17.7,11.4l-23.1-29.6c0,39,5.1,149.6,5.1,149.6
		c-11.3,3.1-21.6,5.4-31.1,6.9c-1.5,0.2-3,0.5-4.5,0.7c-61.1,8.8-82.6-12.7-82.6-12.7c-5.1-79.9-3.2-120-3.2-120
		c-17.3-0.7-27.5-6.2-27.5-6.2c8.6-63,25.2-77.1,33.4-81.3c0.5-0.3,1.1-0.5,1.5-0.7c0.8-0.3,1.5-0.6,2-0.8
		c3.9-1.7,11.8-4.6,15.7-6.1c1.5-0.5,2.4-0.9,2.4-0.9l4.6-1l27.8-6.1l8.1-1.8c2.5,0,4.8,0.1,7.1,0.2c39.2,1.5,48.6,10.4,54.7,19
		c6.5,9,37.6,37.9,37.6,37.9S641.7,443.5,628.3,469.9z"/>
	<path fill="#113042" d="M628.3,469.9c8.6-17,7.9-25.1,6.4-28.8c-1.3-1.3-5.3,0.1-17.2,17.2c-17.7,25.3-13.1,32.3-12.7,32.8l0,0
		C604.8,491.3,614.9,496.3,628.3,469.9z"/>
	<path fill="#F7AF97" d="M645.7,571.3c-0.1,0.6-0.3,1.2-0.3,1.7c-1.7,8.8-8.4,17-16.4,21c-7.5,3.8-16.1,3.9-22.7-2.7
		c-13.6-13.6-16.3-18.3-13.7-28.4c0.2-0.9,0.7-1.8,1.2-2.5c5.3-7.1,23.7-7.4,25.8-7.4L645.7,571.3z"/>
	<path fill="#F7AF97" d="M650.3,547.7l-29.4-7.7c1-12.6,2.4-31.4,2.4-42.2c0-6.6-2.3-11.5-5.1-14.9c3.3-6.9,10.5-19.8,20.5-24
		C657.2,483.3,654.6,521.6,650.3,547.7z"/>
	<path fill="#D74844" d="M410.7,552.7v-27.1c-9.8,0-16.3,0-16.3,0v27.1C399.8,552.7,405.4,552.7,410.7,552.7z"/>
	<path fill="#D74844" d="M650.3,547.7c-1.7,10.2-3.6,18.6-4.6,23.5l-26.1-18.3c0.2,0,0.2,0,0.2,0s0.5-5.3,1.1-12.9L650.3,547.7z"/>
	<path fill="#E29986" d="M638.6,458.8c-10,4.2-17.2,17.2-20.5,24c-4.6-5.6-10.7-7.6-10.7-7.6c5.6-12.6,18.8-28.4,18.8-28.4
		C631.1,450.3,635.2,454.3,638.6,458.8z"/>
	<path fill="#EAA28F" d="M629,593.9c-7.5,3.8-16.1,3.9-22.7-2.7c-13.6-13.6-16.3-18.3-13.7-28.4c0.2-0.9,0.7-1.8,1.2-2.5
		C598.5,570.9,608.2,584.9,629,593.9z"/>
	<path fill="#0D3E59" d="M378,570.6l-8.7,1.1c-2.1,0.3-3.9-1.2-4.2-3.2l-8-62.5c-0.3-2.1,1.2-3.9,3.2-4.2l8.7-1.1
		c2.1-0.3,3.9,1.2,4.2,3.2l8,62.5C381.5,568.5,380.1,570.3,378,570.6z"/>
	<path fill="#BA7A70" d="M378,552.9h-16.8c-2.4,0-4.3-1.9-4.3-4.3V516c0-2.4,1.9-4.3,4.3-4.3H378c2.4,0,4.3,1.9,4.3,4.3v32.6
		C382.3,551,380.3,552.9,378,552.9z"/>
	<path fill="#CC887A" d="M383.8,533.1h-7.6c-1.2,0-2.2-1-2.2-2.2v-16.2c0-1.2,1-2.2,2.2-2.2h7.6c1.2,0,2.2,1,2.2,2.2v16.2
		C385.9,532.2,385,533.1,383.8,533.1z"/>
	
		<ellipse transform="matrix(0.6676 -0.7445 0.7445 0.6676 -531.5901 598.175)" fill="#A3A3A3" cx="404.1" cy="894.4" rx="7.6" ry="42.3"/>
	<path fill="#1C5C7F" d="M586.8,611.2c-11.3,3.1-21.6,5.4-31.1,6.9c-1.5,0.2-3,0.5-4.5,0.7l30.5-157.3
		C581.7,500.6,586.8,611.2,586.8,611.2z"/>
	<path fill="none" stroke="#D7EDF7" stroke-width="2" stroke-miterlimit="10" d="M529.3,387.2c-11.5,26.6-26.7,40.7-26.7,40.7
		c-8.5-13.6-7.1-27.5-5.6-34.3l27.8-6.1L529.3,387.2z"/>
	<path fill="#E29986" d="M449.2,311c0,0-11.3-8.2-11.3,7.7c0,15.9,11.3,12.1,11.3,12.1V311z"/>
	<path fill="#F7AF97" d="M548.8,316c0,13.7-14.8,13.7-14.8,13.7c0,5.8-4,18.1-6.1,23.1c-2.2,5.1,1.8,30,1.8,30l-25.3,33.6
		c0,0-6.9-11.9-5.8-28.9c1.1-17-15.2-11.9-36.5-14.5c-4.2-0.5-7.2-4.9-9.2-11.6c0,0,0-0.1,0-0.1c-0.5-1.6-0.9-3.4-1.3-5.3
		c-6-29.6,0.4-87.3,0.4-88.2c0,0,12.6-18.1,13.4-19.1c0.7-1.1,31.1-3.6,31.1-3.6l23,11.9l12,6.2l1.4,47
		C534,309.5,548.8,302.2,548.8,316z"/>
	<path fill="#E89F8B" d="M548.8,316c0,13.7-14.8,13.7-14.8,13.7c0,5.8-4,18.1-6.1,23.1c-2.2,5.1,1.8,30,1.8,30l-25.3,33.6
		c0,0-6.9-11.9-5.8-28.9c1.1-17-15.2-11.9-36.5-14.5c-4.2-0.5-7.2-4.9-9.2-11.6c2,3.8,6.9,8.1,18.8,8.1c21.2,0,47.7,2.4,47.7-20.3
		V257l12,6.2l1.4,47C534,309.5,548.8,302.2,548.8,316z"/>
	<path fill="#292435" d="M568,291c0,0-49.9-89.6-99.4-48.8c0,0-31.3-0.5-25.1,49.2l5.7,19.6l0.2-5.5c-0.1,1.8,0.8-40.5,15.3-45.5
		c0,0,27.1,50.2,62.5,40.1l5.8,10.1c0,0,15.9-8.1,15.9,5.8L568,291z M479.1,259.9c31.1,9,46.6,35.4,46.6,35.4
		C498.9,297.2,479.1,259.9,479.1,259.9z"/>
	<path fill="#C67C6D" d="M535.3,323.9c0,0-0.2-11.3,6.7-12.1c6.9-0.8,1.8,8.7,0,9.3C540.1,321.7,535.7,321.7,535.3,323.9z"/>
	<ellipse fill="#1C1C1C" cx="462.6" cy="316.6" rx="4.1" ry="6.1"/>
	<ellipse fill="#1C1C1C" cx="498.9" cy="316.6" rx="4.1" ry="6.1"/>
	<path fill="#D64D4D" d="M474.4,317.9c0,0-3.6,12.5-6.7,16.7c-3.1,4.2,9.8,9.6,10.5-1.1C478.9,322.8,474.4,317.9,474.4,317.9z"/>
	<path fill="#212121" d="M495.5,341.6c0,0-2.4,2.7-5.7,5.8h0c-4.2,3.8-10,8.1-14.5,8.1c-2.9,0-5.6-1.8-7.8-4.1
		c-3.9-4.1-6.5-9.8-6.5-9.8s1.6,0.4,4.6,0.9c4.5,0.6,12.3,1.2,22.6,0.1C490.5,342.4,492.9,342.1,495.5,341.6z"/>
	<path fill="#FFFFFF" d="M488.2,342.6v0.8c0,1.2-1,2.2-2.2,2.2h-18.3c-1.2,0-2.2-1-2.2-2.2v-0.9
		C470.1,343.1,477.9,343.7,488.2,342.6z"/>
	<path fill="#D64D4D" d="M489.7,347.4c-4.2,3.8-10,8.1-14.5,8.1c-2.9,0-5.6-1.8-7.8-4.1C470,349.2,476,346.8,489.7,347.4z"/>
	<g>
		<path fill="#1C1C1C" d="M451.6,302.8c0.3-2.1,1.5-3.9,3.2-5.2c1.7-1.3,3.9-2.2,6.2-2.1c2.3,0.1,4.5,1,6.1,2.3
			c0.8,0.6,1.5,1.5,2.1,2.3c0.5,0.9,1,1.8,1.3,2.8c-1.1-0.2-1.9-0.5-2.8-0.8c-0.9-0.2-1.7-0.6-2.5-0.7c-1.6-0.5-2.9-0.7-4.3-0.7
			c-1.3-0.1-2.7,0.1-4.2,0.5C455.1,301.4,453.5,302,451.6,302.8z"/>
	</g>
	<g>
		<path fill="#1C1C1C" d="M488.2,302.8c0.3-2.1,1.5-3.9,3.2-5.2c1.7-1.3,3.9-2.2,6.2-2.1c2.3,0.1,4.5,1,6.1,2.3
			c0.8,0.6,1.5,1.5,2.1,2.3c0.5,0.9,1,1.8,1.3,2.8c-1.1-0.2-1.9-0.5-2.8-0.8c-0.9-0.2-1.7-0.6-2.5-0.7c-1.6-0.5-2.9-0.7-4.3-0.7
			c-1.3-0.1-2.7,0.1-4.2,0.5C491.7,301.4,490.1,302,488.2,302.8z"/>
	</g>
	<path fill="#0D3E59" d="M512.6,405.5c0,0,25,10.9,30.4,3.9c5.4-7-1.6-21.8-14.2-31.9l0.8,5.4L512.6,405.5z"/>
	<path fill="#0D3E59" d="M500.5,406.5c0,0-16.4,7.7-15.3-2.4s13.4-19.2,13.4-19.2S498.9,401.4,500.5,406.5z"/>
	<path fill="#1C5C7F" d="M465.3,486.2c-17.3-0.7-27.5-6.2-27.5-6.2c8.6-63,25.2-77.1,33.4-81.3C468.3,401.7,462.6,416.2,465.3,486.2
		z"/>
	<g>
		<g>
			<path fill="#DD8F7A" d="M484.4,353.9c-1,1.6-2.4,2.9-4,3.9c-0.4,0.2-0.9,0.4-1.3,0.6l-1.4,0.4c-0.5,0.1-1,0.1-1.5,0.2
				c-0.5,0-1,0-1.5,0c-2-0.2-3.9-1-5.4-2.1c-0.8-0.6-1.4-1.3-2.1-1.9c-0.6-0.8-1.2-1.5-1.7-2.2l0.1-0.1l1.9,1.9
				c0.7,0.5,1.4,1.2,2.2,1.6c1.5,1,3.3,1.6,5,1.8c1.8,0.2,3.6-0.2,5.2-1C481.6,356.3,483.1,355.2,484.4,353.9L484.4,353.9z"/>
		</g>
	</g>
</g>
<g>
	
		<rect x="688.7" y="534" transform="matrix(-0.9967 8.145618e-002 -8.145618e-002 -0.9967 1440.1289 1362.3973)" fill="#161616" width="7.2" height="353.1"/>
	<path fill="#0D3E59" d="M682.9,539l-9.2,0.7c-2.1,0.2-3.9-1.4-4-3.4l-5.3-64.6c-0.2-2.1,1.4-3.9,3.4-4l9.2-0.7
		c2.1-0.2,3.9,1.4,4,3.4l5.3,64.6C686.5,537,684.9,538.8,682.9,539z"/>
	<path fill="#0D3E59" d="M714.1,860.3l-19,1.6c-1,0.1-1.8-0.7-1.9-1.6l-1.3-16c-0.1-1,0.7-1.8,1.6-1.9l19-1.6c1-0.1,1.8,0.7,1.9,1.6
		l1.3,16C715.8,859.4,715,860.2,714.1,860.3z"/>
	<path fill="#F2BAAF" d="M905.2,546.7c0,0-5.2,11.9-12.8,13.3c-7.6,1.4-8.6,13-6.3,17.1c2.2,4.1,16.9,26.6,27.2,9.5
		c0,0,9.8-12.5,10.8-36.9C925.2,525.4,905.2,546.7,905.2,546.7z"/>
	<path fill="#F2BAAF" d="M688.6,517.8c-11.8,0-19.4-0.9-24.4-2.5c-9.5-3.1-9.2-8.8-9.2-16c0-10.9,3.8-18.9,9.5-19.7
		c1-0.2,2.7-0.2,4.8-0.3c9.3-0.1,26.4,1.3,25.3,4.9c-1.3,4.3,0,12.8,0,12.8S722.7,517.8,688.6,517.8z"/>
	<path fill="#BD2E2B" d="M962.5,863.3c0,0-7.2,32.9-17.2,32.9s-19.1-1-22.2,10.9h42.3c0,0,7.8,0.9,14.1-11.2
		c6.3-12.1,10.7-25.3,10.7-25.3s-3.1-16.3-10.3-23.7C972.6,839.5,962.5,863.3,962.5,863.3z"/>
	<path fill="#BD2E2B" d="M657.9,857.9c0,0,4.6-9,24.6,3.7c20,12.7,24.6,15.8,29.1,14.6c4.5-1.3,14-4.7,14-4.7l5.8,13.4l0.4,7.8
		c0,0-3.4,14.5-10.9,21.7C713.4,921.6,657.9,857.9,657.9,857.9z"/>
	
		<ellipse transform="matrix(0.6676 -0.7445 0.7445 0.6676 -430.6181 807.8269)" fill="#A3A3A3" cx="689.4" cy="886.2" rx="7.6" ry="42.3"/>
	<path fill="#1F1C28" d="M984.7,840.8c-0.6,2.5-3.4,6-7,9.4c-5.5,5.3-12.8,10.6-16.5,13c-7.2,4.5-22.8-25.1-22.8-25.1l13.5-15
		l2.9-3.2l6.7-7.5c0,0,17.3,21,22.4,25.7C984.8,838.8,984.9,839.7,984.7,840.8z"/>
	<path fill="#F2F2F2" d="M984.7,840.8c-0.6,2.5-3.4,6-7,9.4c-3.1-13.2-17.6-20.7-17.6-20.7l-8.2-6.4l2.9-3.2c3.3,1,6.9,2.2,10.3,3.4
		C972.4,825.8,980.7,835.6,984.7,840.8z"/>
	<path d="M722.3,842.6c0,0-16.6,26.2-10.8,32.4c5.8,6.1,25.3,16.3,28.2,12.5c2.9-3.8,20.2-32.7,20.2-32.7L722.3,842.6z"/>
	<path fill="#292435" d="M965.2,823.3c-1.4,2.1-3.1,4.2-5,6.2c-5.8,6.4-13,12.4-18.1,15.8c-11.2,7.6-20.6-12.3-53.9-45.2
		c-28.4-28.1-35.4-108.2-36.9-130.9c-0.2-3.9-0.3-6.1-0.3-6.1c-10.1,15.5-75.9,174.2-83.1,190.1c-7.2,15.9-16.3,9.8-37.2,2.2
		c-21-7.6-11.6-26.7-11.6-26.7c16.8-63,76.3-192.3,88.8-219.2c1.5-3.2,2.3-5,2.3-5v-8.4c0,0,9.4-58,61-23.3
		c51.6,34.7,35.2,78.8,36.2,128c1.1,49.2,8.3,50.2,20.9,65.1c12.7,14.8,33.3,32.9,40.1,42.3C971.3,811.9,969.3,817.5,965.2,823.3z"
		/>
	<path fill="#771B1B" d="M830.3,411.2l-3,17.2c-0.1,0-0.2-0.1-0.3-0.1c-0.3-0.1-0.7-0.2-1.2-0.3c-4.3-0.8-14.6-0.5-14.6-0.5
		c1.3-4.1,2.9-7.2,4.6-9.5c0.9-1.2,1.8-2.3,2.8-3.1C824.4,409.8,830.3,411.2,830.3,411.2z"/>
	<path fill="#F2F2F2" d="M827,428.3c-0.3-0.1-0.7-0.2-1.2-0.3c-2-2.9-5.4-7.2-9.9-10c0.9-1.2,1.8-2.3,2.8-3.1
		C821.6,417.7,825.4,422.3,827,428.3z"/>
	<path fill="#CE9E19" d="M873.2,290.8c0,0,26.9-23.9,48.6-9.3c21.7,14.6,17.2,51.7,17.5,57.5c0.4,5.8,0.7,32.5,16.3,33.4
		c0,0-34.2,34.3-55.5-11C878.8,316,873.2,290.8,873.2,290.8z"/>
	<path fill="#D60057" d="M880.3,296.3c0,0,11.2-3.6,16.1,6s2,22.6,2,22.6L880.3,296.3z"/>
	<path fill="#BD2E2B" d="M932.2,550.7c0,1.1-0.2,2.3-0.3,3.3c-0.1,0.7-0.2,1.3-0.3,1.9c-1.4,7-15.4,4-24.4,0c-3.1-1.4-4.1-4.2-4-7.3
		c0-1.4,0.3-2.8,0.6-4.2c1.1-4.5,3.4-8.6,3.4-8.6l24.4-2C931.6,533.8,932.5,543.2,932.2,550.7z"/>
	<path fill="#FFCDC0" d="M882.7,362.3c0,19-11.8,12.3-22.1,15.5c-1.3,0.4-2.4,1.3-3.3,2.6C851,389.5,853,417,853,417l-28.5,24.6
		l-0.9-4.3c0,0,3.4-14.8,2-24.9c-1.5-10.1-23.6-8-37.5-12.6c-0.1,0-0.1,0-0.1,0c-13.9-4.7-3.1-84-3.1-84l-1.1-7.8l9-4.7l20.6,4
		l50.4,8.8l0.2,43.6C864.1,359.6,882.7,343.3,882.7,362.3z"/>
	<path fill="#F2BAAF" d="M857.4,380.4C851,389.5,853,417,853,417l-28.5,24.6l-0.9-4.3c0,0,3.4-14.8,2-24.9
		c-1.5-10.1-23.6-8-37.5-12.6c1.5,0.3,19,3.3,38.9,0.7c20.9-2.8,11.7-71.1,11.7-71.1h-1.3l8.3-2l13.3,14.6L857.4,380.4z"/>
	<path fill="#5B1616" d="M879.9,433.5c0,0,73.5,37.1,53.7,109c0,0-4.1,6.8-17.9,3.3c-13.8-3.5-11.1-7.3-11.1-21.4
		c0-14.1,3.5-30.9-29.3-53.4C842.5,448.4,879.9,433.5,879.9,433.5z"/>
	<path fill="#DDAE1B" d="M866.7,387.6c-0.3,1.8-0.4,3.5-0.4,5.1c0,0.1,0,0.2,0,0.2c0.6,12.9,12.1,20.6,12.1,20.6
		c-29.5,10.3-28.6-53.4-28.4-62.1c0-0.6,0-1,0-1c-31.6,0.4-54.9-43.4-54.9-43.4c-11.2,9-11.9,27.3-11.9,27.3
		c-5.4,50.1,1.4,61.2,1.4,61.2c0.9,22.2,11.8,24.2,11.8,24.2c-31.3,9.4-23.3-93.4-19-110.1c4.3-16.6,14.8-10,14.8-10
		c10.8-7.2,34.7-21.7,55.1-19.3c20.4,2.3,53.7,23.1,58.4,66.3C910.5,389.9,866.7,387.6,866.7,387.6z"/>
	<path fill="#FFCDC0" d="M864.6,359.5l-1.1,3.5l-2.3,14.8c10.3-3.2,22,3.4,22-15.5C883.2,343.5,865,359.2,864.6,359.5z"/>
	<path fill="#E29A8F" d="M867.1,372.4c0,0-0.2-11.3,6.7-12.1c6.9-0.8,1.8,8.7,0,9.3C871.9,370.2,867.5,370.2,867.1,372.4z"/>
	<path fill="#BD2E2B" d="M882.7,462.7c-2.6,6.4-6.6,14.4-11.5,22.9c-18.5,32.4-50.1,73.6-71.7,70.8c-10.6-1.4-27.8-4-44.7-7.6
		c-26.9-5.7-53.2-13.9-51.5-23.3c2.7-15.2,5.2-31.7,17.1-29.8c11.9,1.9,13,8.4,19.8,11.4c1.7,0.8,5,2.2,9.1,3.8
		c10.2,4.1,25.4,9.4,33.8,8.5c1.3-0.2,2.5-0.5,3.5-1c0,0-7.1-10.3-14.9-17.6c-2.1-1.9-3.4-4.6-3.8-7.9c-1.2-9.4,5.2-24.1,25-41.7
		c0,0,16-17.7,18.6-23.9c2.6-6.2,14,0.4,14,0.4l-1.6,9.4c0,0,3.1-9.5,18.1-15.7c11.3-4.7,25,0.6,31,3.5c0,0,0,0,0,0
		c1.9,0.9,3.1,1.6,3.1,1.6s1.6,0.5,3.5,1.8c0,0,0.1,0,0.1,0.1c0.3,0.2,0.6,0.4,0.9,0.7C885.1,433.2,891,442.4,882.7,462.7z"/>
	<path fill="#771B1B" d="M878.5,411c0,0-0.7,3-1.3,6.5c-0.3,1.7-0.6,3.5-0.9,5.1c-0.4,2.5-0.6,4.5-0.4,5.1
		c0.6,1.9-35.2-2.2-48.8,3.8c0,0,0.5-1.6,1.9-3.9c0.3-0.5,0.7-1.1,1.1-1.6C835.2,418.5,848.5,406.4,878.5,411z"/>
	<path fill="#BD2E2B" d="M716.5,500.1l-4.6,28.7c0,0-8.7,0.7-15.8-1.2c-2.2-0.6-4.2-1.4-5.8-2.6c-0.5-0.4-1-0.8-1.5-1.3
		c-6-6.5,3.5-29.3,6.8-33.1c1.1-1.3,3.7-0.6,6.8,0.8c1.2,0.5,2.5,1.2,3.7,1.9C711.3,496.3,716.5,500.1,716.5,500.1z"/>
	<path fill="#F2F2F2" d="M965.2,823.3c-1.4,2.1-3.1,4.2-5,6.2c-0.2-5-3-12-13.7-19.6c-20.6-14.8-65.4-42.3-63.6-95.4
		c1.8-53.1,13-111.7-22-124.7c-35.1-13,0-6.9,0-6.9s27.8,11.6,29.6,45.2c1.8,33.6-13.8,104.1,12.8,136.2
		C928.3,794.7,961.2,804.1,965.2,823.3z"/>
	<path fill="#A52828" d="M871.2,485.7c-18.5,32.4-50.1,73.6-71.7,70.8c-10.6-1.4-27.8-4-44.7-7.6l-5.6-37.9
		c10.2,4.1,25.4,9.4,33.8,8.5c1.3-0.2,2.5-0.5,3.5-1c0,0-7.1-10.3-14.9-17.6c-2.1-1.9-3.4-4.6-3.8-7.9c8.7-4.6,23.9-3.2,30.7,2
		C804,499.3,843.2,502.7,871.2,485.7z"/>
	<path fill="#BD2E2B" d="M886.1,451.9c0,0-29.5,49-23.8,76.1c5.7,27.1,13.3,38.8,17.9,42c0,0-24.6,43.4-70,34.4
		c0,0-11.3-12.5-13.2-55.3C795.1,506.4,886.1,451.9,886.1,451.9z"/>
	<path fill="#771B1B" d="M882.7,462.7c-12.5,30.4-55.9,97.3-83.3,93.8c-27.4-3.5-99-15.7-96.2-30.9s5.2-31.7,17.1-29.8
		c11.9,1.9,13,8.4,19.8,11.4c6.1,2.7,31.1,13.6,42.9,12.3c6,0.1,11.3-1.9,15.4-6.9c21.9-27.4,59.4-79.7,59.4-79.7s5.2-10.3,15-7.9
		c0,0,0,0,0,0c2,0.5,4.2,1.6,6.6,3.4c0,0,0.1,0,0.1,0.1c0.3,0.2,0.6,0.4,0.9,0.7C885.1,433.2,891,442.4,882.7,462.7z"/>
	<path fill="#CE9E19" d="M878.5,413.4c-29.5,10.3-28.6-53.4-28.4-62.1l0,0c4.6,1.7,15.2-1,15.2-1c-2.2,16.4,0.8,40.2,1.1,42.4
		c0,0.1,0,0.2,0,0.2C867,405.8,878.5,413.4,878.5,413.4z"/>
	<g>
		<path fill="#B28916" d="M795.6,306.9c2.1,3.8,4.5,7.3,7,10.8c2.5,3.5,5.2,6.8,8.2,9.9c5.8,6.2,12.4,11.8,19.8,15.8
			c3.7,2,7.6,3.6,11.6,4.7c2,0.6,4.1,0.9,6.1,1.3l3.1,0.3l0.8,0.1l0.8,0l1.6,0l1.6,0c0.5,0,1-0.1,1.5-0.1c1-0.1,2.1-0.2,3.1-0.3
			c2-0.4,4.1-0.6,6.1-1.2c4.1-0.9,8-2.4,11.8-3.9l-0.2,3.3c-2-1.4-4-2.8-5.9-4.3c-1.9-1.5-3.8-3-5.7-4.5c-1.9-1.6-3.7-3.2-5.4-5
			c-0.8-0.9-1.7-1.8-2.4-2.8c-0.7-1-1.5-2-1.8-3.2l0.4-0.1c0.6,1,1.4,1.8,2.3,2.6c0.9,0.8,1.8,1.5,2.7,2.3c1.9,1.4,3.8,2.8,5.8,4.1
			c2,1.3,4,2.6,6,3.9c2,1.3,4.1,2.5,6.1,3.8l2.9,1.8l-3.2,1.5c-4,1.9-8.1,3.6-12.5,4.6c-2.2,0.6-4.4,0.8-6.6,1.1
			c-1.1,0.1-2.2,0.1-3.4,0.2c-0.6,0-1.1,0.1-1.7,0l-1.7-0.1c-2.2,0-4.4-0.4-6.7-0.7c-2.2-0.5-4.4-0.9-6.5-1.6
			c-4.2-1.3-8.3-3.1-12.1-5.4c-7.6-4.5-14.1-10.4-19.8-17c-2.8-3.3-5.4-6.8-7.8-10.4c-2.4-3.6-4.6-7.3-6.5-11.2L795.6,306.9z"/>
	</g>
	<ellipse fill="#1C1C1C" cx="791.9" cy="355" rx="3" ry="4.4"/>
	<ellipse fill="#1C1C1C" cx="825.5" cy="355" rx="3" ry="4.4"/>
	<path fill="#D64D4D" d="M803.4,355c0,0-2.6,8.8-4.8,11.7c-2.2,2.9,7,6.7,7.5-0.7C806.7,358.5,803.4,355,803.4,355z"/>
	<path fill="#212121" d="M824.3,373.8c0,0-2.4,2.7-5.7,5.8h0c-4.2,3.8-10,8.1-14.5,8.1c-2.9,0-5.6-1.8-7.8-4.1
		c-3.9-4.1-6.5-9.8-6.5-9.8s1.6,0.4,4.6,0.9c4.5,0.6,12.3,1.2,22.6,0.1C819.3,374.5,821.7,374.2,824.3,373.8z"/>
	<path fill="#FFFFFF" d="M816.9,374.8v0.8c0,1.2-1,2.2-2.2,2.2h-18.3c-1.2,0-2.2-1-2.2-2.2v-0.9
		C798.9,375.3,806.6,375.9,816.9,374.8z"/>
	<path fill="#D64D4D" d="M818.5,379.6c-4.2,3.8-10,8.1-14.5,8.1c-2.9,0-5.6-1.8-7.8-4.1C798.8,381.3,804.7,379,818.5,379.6z"/>
	<g>
		<path fill="#B27B22" d="M779.5,339.9c0.5-2,1.7-3.6,3.3-4.9c1.6-1.3,3.8-2,6-1.9c2.2,0.1,4.3,0.9,5.9,2.1c0.8,0.6,1.5,1.4,2.1,2.1
			c0.5,0.8,1.1,1.7,1.4,2.6c-1-0.3-1.8-0.7-2.6-1c-0.9-0.3-1.6-0.7-2.4-0.9c-1.6-0.5-3-0.8-4.5-0.9c-1.4-0.1-2.9,0.2-4.4,0.7
			C782.9,338.3,781.3,339,779.5,339.9z"/>
	</g>
	<g>
		<g>
			<path fill="#F7AF97" d="M813.4,386.1c-1,1.6-2.4,2.9-4,3.9c-0.4,0.2-0.9,0.4-1.3,0.6l-1.4,0.4c-0.5,0.1-1,0.1-1.5,0.2
				c-0.5,0-1,0-1.5,0c-2-0.2-3.9-1-5.4-2.1c-0.8-0.6-1.4-1.3-2.1-1.9c-0.6-0.8-1.2-1.5-1.7-2.2l0.1-0.1l1.9,1.9
				c0.7,0.5,1.4,1.2,2.2,1.6c1.5,1,3.3,1.6,5,1.8c1.8,0.2,3.6-0.2,5.2-1C810.7,388.5,812.2,387.4,813.4,386.1L813.4,386.1z"/>
		</g>
	</g>
	<g>
		<path fill="#B27B22" d="M816.1,339.9c0.5-2,1.7-3.6,3.3-4.9c1.6-1.3,3.8-2,6-1.9c2.2,0.1,4.3,0.9,5.9,2.1c0.8,0.6,1.5,1.4,2.1,2.1
			c0.5,0.8,1.1,1.7,1.4,2.6c-1-0.3-1.8-0.7-2.6-1c-0.9-0.3-1.6-0.7-2.4-0.9c-1.6-0.5-3-0.8-4.5-0.9c-1.4-0.1-2.9,0.2-4.4,0.7
			C819.5,338.3,817.9,339,816.1,339.9z"/>
	</g>
	<path fill="#F2F2F2" d="M877.2,417.5c-0.3,1.7-0.6,3.5-0.9,5.1c-6.9-0.7-28.6-2.3-47.3,5c0.3-0.5,0.7-1.1,1.1-1.6
		C836.7,421.9,852,415.1,877.2,417.5z"/>
	<g>
		<path fill="#EDEDED" d="M823.6,437.3c-1.2,3.6-2.8,7-5,10.1c-1.2,1.5-2.5,2.8-3.7,4.3c-1.2,1.4-2.4,2.9-3.6,4.4
			c-2.3,3-4.4,6.1-6.4,9.2c-2,3.1-3.8,6.4-4.9,10l-0.1,0c0.2-1.9,0.9-3.7,1.6-5.5c0.8-1.7,1.6-3.4,2.6-5.1c1.9-3.3,4.2-6.3,6.6-9.2
			c1.2-1.5,2.4-2.9,3.7-4.3c1.2-1.4,2.7-2.7,3.8-4.1C820.5,444.1,822.2,440.7,823.6,437.3L823.6,437.3z"/>
	</g>
	<ellipse transform="matrix(0.866 0.5 -0.5 0.866 349.705 -370.5238)" fill="#A33D3D" cx="866.3" cy="467.3" rx="11.5" ry="14.4"/>
	<path fill="#F2F2F2" d="M932.2,550.7c0,1.1-0.2,2.3-0.3,3.3c-11.4,3.3-21.7-0.9-28.7-5.4c0-1.4,0.3-2.8,0.6-4.2
		C915.6,552.5,926.3,552,932.2,550.7z"/>
	<path fill="#F2F2F2" stroke="#F2F2F2" stroke-miterlimit="10" d="M702.4,491.4c-3.4,3.4-8.3,12.1-12.1,33.6c1.6,1.2,3.6,2,5.8,2.6
		c0.3-5.9,2-21.5,10-34.3"/>
	<path d="M851.3,669.2c-0.2-3.9-0.3-6.1-0.3-6.1c-10.1,15.5-75.9,174.2-83.1,190.1c-7.2,15.9-16.3,9.8-37.2,2.2
		c-21-7.6-11.6-26.7-11.6-26.7c16.8-63,76.3-192.3,88.8-219.2c4.8,11.6,16.6,33.9,41,48.3C848.8,657.7,852.5,656.9,851.3,669.2z"/>
	<path fill="#DDA69E" d="M664.2,515.2c-9.5-3.1-9.2-8.8-9.2-16c0-10.9,3.8-18.9,9.5-19.7c1-0.2,2.7-0.2,4.8-0.3
		C665.8,485.5,663,496.3,664.2,515.2z"/>
	
		<rect x="1020.8" y="559.3" transform="matrix(-0.7922 0.6103 -0.6103 -0.7922 2282.0305 685.5388)" fill="#161616" width="7" height="344.1"/>
	<path fill="#0D3E59" d="M925.6,596.1l-6.9,5.3c-1.6,1.3-4,1-5.3-0.7L875,550.9c-1.3-1.6-1-4,0.7-5.3l6.9-5.3c1.6-1.3,4-1,5.3,0.7
		l38.4,49.9C927.6,592.5,927.3,594.8,925.6,596.1z"/>
	<path fill="#0D3E59" d="M1121.4,842.3l-14.6,11.3c-0.8,0.6-1.9,0.5-2.5-0.3l-9.5-12.3c-0.6-0.8-0.5-1.9,0.3-2.5l14.6-11.3
		c0.8-0.6,1.9-0.5,2.5,0.3l9.5,12.3C1122.3,840.6,1122.2,841.7,1121.4,842.3z"/>
	<path fill="#BA7A70" d="M901.4,595.8l-20.9-19.4c-1.9-1.7-2-4.7-0.2-6.6l10.4-11.2c1.7-1.9,4.7-2,6.6-0.2l20.9,19.4
		c1.9,1.7,2,4.7,0.2,6.6l-10.4,11.2C906.2,597.5,903.2,597.6,901.4,595.8z"/>
	
		<ellipse transform="matrix(0.7071 -0.7071 0.7071 0.7071 -135.911 800.6089)" fill="#CC887A" cx="898.5" cy="564.4" rx="5.5" ry="10"/>
</g>
</svg>
